<?xml version="1.0" standalone="no"?>
<!DOCTYPE svg PUBLIC "-//W3C//DTD SVG 20010904//EN"
 "http://www.w3.org/TR/2001/REC-SVG-20010904/DTD/svg10.dtd">
<svg version="1.0" xmlns="http://www.w3.org/2000/svg"
 width="613.000000pt" height="561.000000pt" viewBox="0 0 613.000000 561.000000"
 preserveAspectRatio="xMidYMid meet">
<metadata>
Created by potrace 1.16, written by Peter Selinger 2001-2019
</metadata>
<g transform="translate(0.000000,561.000000) scale(0.100000,-0.100000)"
fill="#000000" stroke="none">
<path d="M2495 5599 c-168 -19 -174 -32 -29 -65 154 -35 347 -105 489 -177 54
-27 76 -32 220 -44 329 -27 589 -70 832 -138 121 -33 124 -34 180 -19 90 23
123 35 123 45 0 14 -75 58 -225 130 -294 141 -596 226 -939 264 -141 16 -529
18 -651 4z"/>
<path d="M1870 5462 c-143 -53 -213 -83 -360 -157 -180 -91 -396 -222 -457
-278 -30 -27 -30 -65 0 -72 27 -7 69 5 327 94 350 120 670 194 1005 231 213
24 225 26 225 44 0 23 -195 114 -305 142 -70 18 -135 27 -215 30 -113 4 -116
4 -220 -34z"/>
<path d="M3016 5136 c-46 -17 -104 -72 -228 -215 -119 -137 -235 -294 -264
-356 -46 -97 -46 -97 165 -416 191 -290 330 -486 373 -526 49 -46 82 -51 652
-103 437 -39 566 -48 596 -40 27 7 55 28 94 70 108 117 313 453 323 529 7 53
-24 117 -148 306 -184 281 -395 532 -496 592 -74 43 -318 98 -616 137 -247 33
-400 40 -451 22z"/>
<path d="M4442 5070 c-57 -26 -102 -58 -102 -73 0 -7 34 -52 76 -102 191 -228
368 -478 469 -663 47 -86 54 -94 110 -123 198 -104 337 -199 480 -328 73 -66
105 -85 105 -62 0 17 -69 170 -134 298 -152 299 -392 610 -648 839 -117 106
-283 234 -302 234 -6 0 -30 -9 -54 -20z"/>
<path d="M4943 3910 c-26 -11 -90 -106 -292 -432 -85 -138 -154 -262 -157
-280 -3 -19 10 -100 30 -193 52 -236 82 -435 100 -655 28 -337 25 -318 57
-354 17 -19 86 -63 166 -106 76 -40 176 -95 223 -122 47 -26 98 -48 113 -48
77 0 388 396 506 644 88 184 98 242 82 475 -13 177 -34 329 -62 451 -16 71
-28 96 -70 152 -84 112 -319 294 -544 421 -89 50 -119 59 -152 47z"/>
<path d="M5672 2065 c-85 -165 -240 -377 -407 -556 -76 -81 -83 -93 -129 -210
-111 -283 -225 -513 -346 -699 -39 -59 -70 -116 -70 -128 0 -114 357 244 585
586 187 282 324 604 400 939 41 179 32 197 -33 68z"/>
</g>
</svg>
